name Walk5.mot
datacolumns 19
datarows 17
range 3.04300000 3.05900000
endheader

                time	   L_ground_force_vx	   L_ground_force_vy	   L_ground_force_vz	   L_ground_force_px	   L_ground_force_py	   L_ground_force_pz	   R_ground_force_vx	   R_ground_force_vy	   R_ground_force_vz	   R_ground_force_px	   R_ground_force_py	   R_ground_force_pz	   L_ground_torque_x	   L_ground_torque_y	   L_ground_torque_z	   R_ground_torque_x	   R_ground_torque_y	   R_ground_torque_z	
          3.04300000	        -27.83156806	        744.88897516	        -53.75341077	          0.20958437	          0.00000000	          0.09869791	          0.00000000	          0.00000000	          0.00000000	          0.00000000	          0.00000000	          0.00000000	          0.00000000	          8.89884707	          0.00000000	          0.00000000	          0.00000000	          0.00000000	
          3.04400000	        -27.55656688	        743.35747206	        -53.69834904	          0.20986350	          0.00000000	          0.09865705	          0.00000000	          0.00000000	          0.00000000	          0.00000000	          0.00000000	          0.00000000	          0.00000000	          8.84112699	          0.00000000	          0.00000000	          0.00000000	          0.00000000	
          3.04500000	        -27.19611220	        741.88837278	        -53.66287667	          0.21015711	          0.00000000	          0.09866771	          0.00000000	          0.00000000	          0.00000000	          0.00000000	          0.00000000	          0.00000000	          0.00000000	          8.82685164	          0.00000000	          0.00000000	          0.00000000	          0.00000000	
          3.04600000	        -26.77195325	        740.58997885	        -53.64089231	          0.21052275	          0.00000000	          0.09875397	          0.00000000	          0.00000000	          0.00000000	          0.00000000	          0.00000000	          0.00000000	          0.00000000	          8.84296713	          0.00000000	          0.00000000	          0.00000000	          0.00000000	
          3.04700000	        -26.36777331	        739.48162842	        -53.62151859	          0.21097454	          0.00000000	          0.09889784	          0.00000000	          0.00000000	          0.00000000	          0.00000000	          0.00000000	          0.00000000	          0.00000000	          8.85385123	          0.00000000	          0.00000000	          0.00000000	          0.00000000	
          3.04800000	        -26.05036127	        738.49352368	        -53.59165333	          0.21148382	          0.00000000	          0.09905582	          0.00000000	          0.00000000	          0.00000000	          0.00000000	          0.00000000	          0.00000000	          0.00000000	          8.83090675	          0.00000000	          0.00000000	          0.00000000	          0.00000000	
          3.04900000	        -25.81388716	        737.51497626	        -53.54465540	          0.21200407	          0.00000000	          0.09918602	          0.00000000	          0.00000000	          0.00000000	          0.00000000	          0.00000000	          0.00000000	          0.00000000	          8.77483580	          0.00000000	          0.00000000	          0.00000000	          0.00000000	
          3.05000000	        -25.60851636	        736.45294071	        -53.49122521	          0.21251241	          0.00000000	          0.09927239	          0.00000000	          0.00000000	          0.00000000	          0.00000000	          0.00000000	          0.00000000	          0.00000000	          8.71116949	          0.00000000	          0.00000000	          0.00000000	          0.00000000	
          3.05100000	        -25.39702163	        735.27510644	        -53.45440967	          0.21301700	          0.00000000	          0.09932900	          0.00000000	          0.00000000	          0.00000000	          0.00000000	          0.00000000	          0.00000000	          0.00000000	          8.66425338	          0.00000000	          0.00000000	          0.00000000	          0.00000000	
          3.05200000	        -25.17417573	        734.01878594	        -53.45048414	          0.21351690	          0.00000000	          0.09937416	          0.00000000	          0.00000000	          0.00000000	          0.00000000	          0.00000000	          0.00000000	          0.00000000	          8.63694633	          0.00000000	          0.00000000	          0.00000000	          0.00000000	
          3.05300000	        -24.95058064	        732.75134182	        -53.47664218	          0.21398673	          0.00000000	          0.09941248	          0.00000000	          0.00000000	          0.00000000	          0.00000000	          0.00000000	          0.00000000	          0.00000000	          8.61329711	          0.00000000	          0.00000000	          0.00000000	          0.00000000	
          3.05400000	        -24.73253254	        731.51304627	        -53.51650572	          0.21440772	          0.00000000	          0.09944553	          0.00000000	          0.00000000	          0.00000000	          0.00000000	          0.00000000	          0.00000000	          0.00000000	          8.57704963	          0.00000000	          0.00000000	          0.00000000	          0.00000000	
          3.05500000	        -24.51428172	        730.28869080	        -53.55203857	          0.21478137	          0.00000000	          0.09947877	          0.00000000	          0.00000000	          0.00000000	          0.00000000	          0.00000000	          0.00000000	          0.00000000	          8.52733398	          0.00000000	          0.00000000	          0.00000000	          0.00000000	
          3.05600000	        -24.28408805	        729.03210766	        -53.56861845	          0.21511688	          0.00000000	          0.09951151	          0.00000000	          0.00000000	          0.00000000	          0.00000000	          0.00000000	          0.00000000	          0.00000000	          8.47407268	          0.00000000	          0.00000000	          0.00000000	          0.00000000	
          3.05700000	        -24.03586794	        727.72669399	        -53.55874356	          0.21543298	          0.00000000	          0.09953919	          0.00000000	          0.00000000	          0.00000000	          0.00000000	          0.00000000	          0.00000000	          0.00000000	          8.42277219	          0.00000000	          0.00000000	          0.00000000	          0.00000000	
          3.05800000	        -23.77330781	        726.41066771	        -53.52799688	          0.21575637	          0.00000000	          0.09957011	          0.00000000	          0.00000000	          0.00000000	          0.00000000	          0.00000000	          0.00000000	          0.00000000	          8.37269561	          0.00000000	          0.00000000	          0.00000000	          0.00000000	
          3.05900000	        -23.50669711	        725.14248492	        -53.49172503	          0.21610201	          0.00000000	          0.09962212	          0.00000000	          0.00000000	          0.00000000	          0.00000000	          0.00000000	          0.00000000	          0.00000000	          8.32365224	          0.00000000	          0.00000000	          0.00000000	          0.00000000	
